<?xml version="1.0" standalone="no"?>
<!DOCTYPE svg PUBLIC "-//W3C//DTD SVG 20010904//EN"
 "http://www.w3.org/TR/2001/REC-SVG-20010904/DTD/svg10.dtd">
<svg version="1.0" xmlns="http://www.w3.org/2000/svg"
 width="800.000000pt" height="726.000000pt" viewBox="0 0 800.000000 726.000000"
 preserveAspectRatio="xMidYMid meet">

<g transform="translate(0.000000,726.000000) scale(0.100000,-0.100000)"
fill="#000000" stroke="none">
<path d="M7505 7229 c-17 -17 -573 -571 -1236 -1230 -861 -855 -1211 -1197
-1222 -1193 -16 6 -77 96 -195 290 l-62 101 -352 6 c-194 4 -543 7 -774 7
-491 0 -442 12 -525 -128 -96 -161 -173 -272 -192 -278 -16 -5 -256 230 -1247
1221 -884 883 -1233 1226 -1246 1223 -36 -7 -209 -427 -289 -704 -259 -893
-203 -1837 162 -2694 24 -58 82 -178 128 -267 431 -835 1154 -1497 2032 -1859
118 -49 163 -72 163 -85 0 -6 -21 -35 -46 -64 -60 -71 -67 -100 -54 -232 69
-683 522 -1182 1194 -1315 155 -31 379 -30 523 0 311 67 591 226 804 457 161
176 273 390 341 653 25 95 31 139 31 232 2 125 -6 151 -64 218 -32 36 -36 54
-16 70 6 5 64 31 127 57 788 320 1452 878 1899 1595 618 992 771 2185 425
3310 -68 218 -241 628 -269 637 -6 2 -24 -11 -40 -28z m-6333 -1078 c342 -342
608 -616 608 -626 0 -10 -20 -79 -44 -154 -92 -285 -119 -468 -120 -796 l-1
-250 -30 3 c-24 3 -932 242 -1131 298 -73 21 -84 32 -100 104 -41 190 -57 390
-58 695 -1 304 5 375 45 620 47 285 174 715 211 715 7 0 286 -274 620 -609z
m6313 545 c32 -73 79 -227 119 -396 69 -289 95 -485 103 -785 6 -244 -3 -389
-38 -644 -24 -175 -36 -207 -84 -227 -32 -13 -1053 -290 -1153 -312 -22 -5
-44 -7 -49 -3 -5 3 -9 117 -9 261 1 203 -3 277 -17 365 -22 130 -74 335 -116
459 -17 50 -31 97 -31 106 0 23 1226 1244 1241 1235 6 -4 21 -31 34 -59z
m-5059 -1748 c284 -283 414 -420 414 -434 0 -11 -39 -86 -86 -165 -130 -219
-123 -194 -76 -243 26 -27 165 -266 415 -716 432 -778 469 -848 462 -861 -10
-15 -44 -10 -166 26 -150 44 -247 83 -380 151 -533 272 -945 794 -1093 1383
-54 211 -61 271 -60 531 0 255 7 325 55 515 39 154 68 225 91 225 5 0 196
-186 424 -412z m3604 355 c28 -75 64 -215 86 -338 15 -80 19 -151 19 -350 0
-279 -12 -370 -79 -601 -167 -579 -577 -1065 -1121 -1329 -206 -100 -475 -183
-475 -146 0 18 30 75 403 756 440 805 422 773 464 816 41 43 46 27 -67 215
-39 63 -80 133 -91 155 l-20 40 50 58 c84 97 781 781 796 781 7 0 23 -25 35
-57z m-1572 -354 c2 -10 -80 -101 -216 -239 -210 -212 -221 -221 -243 -210
-31 17 -314 295 -392 385 l-61 70 105 6 c57 3 261 5 454 5 315 -1 350 -3 353
-17z m-1032 -152 c52 -51 94 -100 94 -108 0 -11 -21 -24 -60 -38 -68 -25 -122
-73 -145 -128 -21 -49 -19 -149 4 -198 23 -51 89 -111 138 -124 138 -39 262
29 308 170 9 27 21 49 27 49 6 0 35 -24 65 -54 l53 -53 -2 -269 c-3 -234 -5
-269 -19 -272 -14 -3 -907 402 -957 434 -30 20 -26 32 56 169 203 340 315 515
329 515 8 0 57 -42 109 -93z m1474 -236 c95 -156 176 -295 181 -309 7 -18 6
-29 -3 -38 -7 -7 -220 -108 -473 -224 -339 -156 -464 -209 -475 -202 -12 7
-17 45 -23 183 -4 96 -5 212 -1 259 l6 85 45 43 c25 23 50 42 55 42 5 0 18
-21 29 -47 31 -72 63 -108 121 -137 156 -78 341 35 342 209 0 98 -57 181 -156
225 -27 11 -48 27 -48 34 0 19 84 111 144 158 47 38 50 38 67 21 10 -10 95
-146 189 -302z m-3840 -392 c612 -163 617 -165 631 -190 5 -11 28 -71 50 -135
59 -172 125 -312 222 -473 48 -79 87 -147 87 -151 0 -4 -6 -12 -13 -18 -21
-18 -800 -222 -820 -216 -23 7 -57 45 -155 173 -243 315 -438 673 -563 1031
-37 108 -35 136 9 125 15 -3 263 -69 552 -146z m6467 135 c20 -51 -193 -539
-341 -782 -116 -190 -275 -412 -365 -505 -32 -34 -40 -38 -71 -32 -74 13 -741
196 -775 212 -19 9 -35 21 -35 26 0 5 20 40 43 76 116 175 202 353 276 566 27
77 49 125 62 133 15 9 1017 283 1154 315 37 9 46 7 52 -9z m-2541 -365 c8 -14
8 -14 -471 -889 -528 -966 -486 -891 -508 -888 -13 2 -56 69 -139 218 -620
1113 -842 1516 -846 1538 -5 23 -3 25 24 19 16 -3 230 -98 476 -211 305 -141
457 -206 480 -206 21 1 197 77 498 215 256 118 468 215 472 215 4 0 10 -5 14
-11z m1103 -1075 c196 -53 373 -101 394 -107 21 -5 41 -16 44 -24 7 -19 -38
-65 -163 -169 -340 -281 -735 -503 -1152 -648 -95 -33 -106 -35 -130 -22 -45
24 -402 390 -402 412 0 17 22 29 132 69 303 111 541 259 827 513 44 39 84 72
88 72 3 0 166 -43 362 -96z m-3719 8 c133 -120 180 -157 312 -245 152 -102
288 -171 483 -246 112 -43 150 -62 150 -75 0 -9 -90 -107 -200 -216 -164 -165
-204 -200 -227 -200 -34 0 -231 70 -378 135 -346 151 -726 396 -977 629 -66
61 -75 79 -45 94 9 5 172 51 362 101 190 51 350 94 355 96 6 2 26 4 45 4 30 1
47 -10 120 -77z m1352 -619 c13 -21 57 -98 97 -171 61 -110 73 -138 68 -165
-5 -32 -662 -1240 -703 -1294 -21 -27 -23 -27 -50 -13 -96 52 -260 342 -320
564 -37 139 -41 207 -16 248 37 58 856 868 879 868 13 0 30 -14 45 -37z m665
-22 c113 -95 811 -806 818 -833 16 -65 -47 -313 -122 -477 -70 -155 -178 -297
-218 -289 -20 4 -67 84 -440 753 -150 270 -279 509 -285 531 -12 41 -12 42 65
180 97 174 103 184 115 184 5 0 35 -22 67 -49z m-333 -568 c54 -86 640 -1148
644 -1169 5 -27 -45 -67 -158 -124 -180 -90 -316 -121 -545 -123 -157 -2 -178
0 -278 26 -197 51 -379 141 -385 189 -2 18 88 192 314 604 174 318 325 591
336 607 26 37 43 34 72 -10z"/>
</g>
</svg>
